<svg width="1104" height="161" viewBox="0 0 1104 161" fill="none" xmlns="http://www.w3.org/2000/svg">
<g clip-path="url(#clip0_3193_137)">
<path d="M88.3281 63.3076H50.0161L57.1948 29.9487H89.7173C99.8507 29.9487 108.987 33.1342 109.562 41.1396C110.183 49.7622 103.979 63.3076 88.3281 63.3076ZM102.936 104.045C103.696 114.609 96.0949 131.201 76.9229 131.201H35.4331L44.2266 90.3369H78.624C91.0387 90.3369 102.229 94.2382 102.936 104.045ZM120.523 66.8022C136.04 58.0089 137.851 46.6288 138.368 29.5581C138.884 12.4888 114.315 2.40332 96.4692 2.40332H33.3643L0 158.098H61.2959C65.4332 158.098 87.1586 158.616 105.004 150.598C122.849 142.581 136.816 119.562 129.057 98.8716C121.299 78.1809 94.9175 79.0781 94.9175 79.0781L96.2109 74.3022C96.2109 74.3022 105.004 75.5956 120.523 66.8022Z" fill="#FF331F"/>
<path d="M171.759 17.4106C171.759 17.4106 151.139 134.26 148.953 145.82C146.765 157.38 154.576 158.105 158.637 158.105H234.558C241.745 158.105 245.806 154.568 247.681 147.382C249.555 140.196 249.863 136.093 250.25 134.083C250.637 132.073 249.941 129.522 246.386 129.522H178.987L182.929 126.664C182.929 126.664 188.107 97.2919 188.571 95.5146C189.035 93.7372 190.581 93.7368 190.581 93.7368H236.184C240.589 93.7368 247.854 93.4276 251.642 85.4663C251.642 85.4663 254.657 72.4036 254.657 71.3223C254.657 70.2396 255.429 66.7612 251.255 66.7612H198.852C195.064 66.7612 194.214 64.6743 194.677 62.2783C195.141 59.8823 199.392 34.4532 199.778 32.8306C200.165 31.2079 201.17 30.9756 202.252 30.9756H306.597L330.634 93.1958L317.031 157.734H332.876C338.132 157.734 347.021 154.72 349.03 145.6C351.04 136.48 359.852 93.9678 359.852 93.9678C359.852 93.9678 428.177 9.1011 429.646 7.0918C431.114 5.0825 431.269 2.68652 427.946 2.68652H405.454C401.589 2.68652 398.497 4.23162 395.329 8.17432C392.159 12.1156 360.084 51.9208 357.069 55.5542C354.054 59.1862 352.045 62.8969 351.426 64.2876C350.808 65.6796 350.808 66.5288 350.808 66.5288H346.48C346.48 66.5288 346.789 64.365 346.248 61.6597C345.706 58.9544 344.161 55.5542 344.161 55.5542C344.161 55.5542 326.538 8.63711 325.378 5.93311C324.219 3.22781 322.75 2.68652 320.664 2.68652H186.87C182.465 2.68652 174.129 3.98924 171.759 17.4106Z" fill="#FF331F"/>
<path d="M533.511 80.1757C530.208 93.129 519.503 112.882 508.172 121.269C496.84 129.656 489.278 132.856 479.655 133.629C470.032 134.401 457.568 133.629 449.532 124.358C441.498 115.089 439.863 101.737 441.295 90.7021C442.727 79.6661 447.896 63.7757 456.872 51.8583C465.848 39.9397 472.938 35.4159 480.064 31.5532C487.191 27.6905 497.574 26.2569 505.491 26.6982C513.303 27.1329 525.874 30.009 531.739 42.809C537.603 55.6103 536.814 67.221 533.511 80.1757ZM554.801 24.3012C543.039 5.08521 521.657 0.768958 508.583 0.115658C495.331 -0.547042 478.267 1.60602 467.003 7.40472C455.738 13.202 444.639 19.9945 431.552 37.8852C418.466 55.7772 412.336 79.6319 411.674 96.1972C411.011 112.763 415.815 132.808 430.642 146.722C445.467 160.637 466.34 161.797 482.243 160.637C498.147 159.478 510.239 154.674 527.799 142.083C545.359 129.494 560.103 99.8407 563.582 80.3954C567.06 60.9487 566.563 43.5185 554.801 24.3012Z" fill="#FF331F"/>
<path d="M562.703 154.556C562.703 154.556 561.619 158.002 565.466 158.002H578.38C581.755 158.002 590.401 155.33 593.634 146.12L600.103 116.173C600.103 116.173 609.3 70.7767 612.713 55.7927C616.125 40.81 630.663 30.722 642.383 29.8313H701.131H718.388C761.717 29.8313 795.22 37.5738 826.936 65.7151C858.652 93.8578 867.139 113.066 873.393 127.361C879.647 141.654 879.429 144.267 880.736 147.861C882.043 151.453 885.199 158.001 896.957 158.001C908.716 158.001 913.397 158.312 920.365 154.066C927.333 149.82 932.341 143.832 934.301 134.468C936.261 125.106 960.575 9.51137 961.187 6.90207C961.797 4.29137 961.02 2.73655 959.243 2.73655H942.859C939.527 2.73655 932.14 5.45769 930.473 12.843C928.808 20.2297 910.517 106.672 909.648 110.586C908.779 114.499 907.8 121.675 907.583 124.61C907.365 127.546 907.365 131.025 905.191 131.133C903.016 131.242 902.908 129.502 901.929 126.458C900.951 123.414 894.101 105.476 888.992 96.4524C883.883 87.4297 868.119 62.8608 850.289 47.6394C832.46 32.4194 801.683 12.2698 765.383 5.89377C741.248 1.65377 722.767 2.73655 722.767 2.73655H647.893C631.079 2.73655 608.523 8.5724 591.291 34.4177C585.631 42.9084 580.137 70.7097 580.137 70.7097L562.703 154.556Z" fill="#FF331F"/>
<path d="M1072.41 73.0805C1070 90.6351 1065.01 100.962 1054.69 112.321C1044.36 123.679 1029.39 129.358 1014.59 129.875C999.785 130.391 986.188 129.875 986.188 129.875L1007.53 29.7099H1034.03C1034.03 29.7099 1042.3 29.7102 1052.28 32.9809C1066.86 37.7595 1074.82 55.5258 1072.41 73.0805ZM1094.44 28.85C1084.98 15.598 1070.7 6.0968 1052.79 3.7221C1041.78 2.2621 983.718 2.61126 983.718 2.61126L950.798 158.006C950.798 158.006 980.336 158.427 1002.54 158.006C1024.74 157.583 1046.08 155.862 1066.91 139.341C1087.73 122.818 1097.02 97.3458 1100.98 80.3085C1104.94 63.2711 1103.91 42.102 1094.44 28.85Z" fill="#FF331F"/>
</g>
<defs>
<clipPath id="clip0_3193_137">
<rect width="1103.16" height="160.977" fill="white"/>
</clipPath>
</defs>
</svg>
