<svg width="400" height="400" viewBox="0 0 400 400" fill="none" xmlns="http://www.w3.org/2000/svg">
<path d="M242.116 265.5C244.134 236.499 271.905 213 304.152 213C336.398 213 360.902 236.499 358.884 265.5C356.866 294.501 329.095 318 296.848 318C264.602 318 240.098 294.501 242.116 265.5Z" fill="#FBFBFF"/>
<path d="M53.8208 187C53.0442 187 52.2948 186.948 51.5591 186.804C45.5643 185.782 41 180.74 41 174.689C41 173.864 41.0817 173.065 41.2452 172.305L48.2074 134.86L50.3874 123.06C54.7882 99.2097 76.9691 82 102.039 82H328.276C360.444 82 384.9 105.509 382.884 134.493C380.867 163.491 353.168 186.987 320.987 186.987H53.8208V187Z" fill="#FBFBFF"/>
<path d="M29.8165 318C29.0402 318 28.291 317.948 27.5556 317.804C21.5627 316.782 17 311.74 17 305.689C17 304.864 17.0817 304.065 17.2452 303.305L24.205 265.86L26.3842 254.06C30.7835 230.21 46.0516 213 78.018 213H146.581C178.575 213 202.887 236.496 200.885 265.493C198.883 294.491 171.329 317.987 139.336 317.987H29.8165V318Z" fill="#FBFBFF"/>
</svg>
